<?xml version="1.0" encoding="UTF-8"?><svg id="Layer_1" xmlns="http://www.w3.org/2000/svg" viewBox="0 0 117.6 117.6"><defs><style>.cls-1{stroke-width:0px;}</style></defs><path class="cls-1" d="m53.27,71.73c0-.67,0-1.34,0-2.01,0-15.75,0-31.51,0-47.26,0-2.84,1.53-4.93,4.08-5.66,2.44-.7,5.11.2,6.34,2.42.57,1.03.85,2.34.86,3.53.05,15.83.04,31.67.04,47.5,0,.52,0,1.03,0,1.8.41-.33.67-.52.9-.75,4.6-4.44,9.19-8.9,13.8-13.33,1.54-1.47,3.55-1.76,5.3-.85,2.11,1.09,3.4,3.1,3,5.12-.19.96-.7,2.01-1.38,2.69-7.97,7.8-15.99,15.55-24.01,23.3-2,1.94-4.65,1.91-6.64-.04-7.89-7.77-15.78-15.54-23.65-23.32-2.09-2.07-2.14-4.55-.19-6.56,2.32-2.4,4.93-2.57,7.15-.4,4.32,4.22,8.61,8.47,12.89,12.72.42.42.74.93,1.11,1.4.14-.09.27-.18.41-.26Z"/><path class="cls-1" d="m95.22,69.91h8.22c.06.1.14.17.14.23-.03,5.71.2,11.45-.15,17.14-.47,7.66-7.32,14.05-14.98,14.48-.72.04-1.44.04-2.16.04-18.31,0-36.62.01-54.94,0-8.08,0-14.66-5.28-16.32-13.03-.19-.89-.32-1.82-.33-2.73-.03-5.12-.02-10.24-.01-15.35,0-.23.03-.47.06-.77h8.28c.02.42.05.85.05,1.27,0,4.64,0,9.28,0,13.91,0,5.06,3.44,8.51,8.51,8.51,18.35,0,36.7,0,55.06,0,5.14,0,8.57-3.42,8.58-8.56,0-4.56,0-9.12,0-13.67,0-.47,0-.94,0-1.47Z"/></svg>