<?xml version="1.0" encoding="UTF-8"?><svg id="Layer_1" xmlns="http://www.w3.org/2000/svg" xmlns:xlink="http://www.w3.org/1999/xlink" viewBox="0 0 1080 1080"><defs><style>.cls-1{fill:none;}.cls-2{clip-path:url(#clippath);}.cls-3{fill:#9db8b1;}.cls-4{fill:#556972;}.cls-5{fill:#5d777e;}.cls-6{fill:#799698;}</style><clipPath id="clippath"><rect class="cls-1" x=".54" y="1.53" width="1081.92" height="1081.92"/></clipPath></defs><g class="cls-2"><g><path class="cls-4" d="m1174.38-60.54s-313.32,112.2-331.71,588.72c-18.4,476.52-465.37,580.55-465.37,580.55l911.27-109.65L1174.38-60.54Z"/><path class="cls-5" d="m1249.89,70.07s-320.14,89.96-366.15,533.48c-46.02,443.52-499.47,519.6-499.47,519.6l918.56-59.57-52.93-993.51Z"/><path class="cls-6" d="m1231.12,316.79s-249.19,38.98-333.93,400.9c-84.75,361.92-428.21,361.26-428.21,361.26l692.42,52.46,69.72-814.62Z"/><path class="cls-3" d="m1258.07,510.38s-215.65,3.09-336.37,309.88c-120.72,306.79-410.57,263.35-410.57,263.35l602.51,137.4,144.43-710.64Z"/></g></g></svg>